<svg version="1" xmlns="http://www.w3.org/2000/svg" width="436" height="436" viewBox="0 0 327.000000 327.000000"><path d="M261.1 4.9c-1.1 1.1-2.2 4.1-2.6 7-.4 2.8-.9 5.1-1.1 5.1-.2 0-4.8-1.1-10.1-2.5-5.4-1.4-16.5-3.4-24.8-4.5-8.2-1.1-17.5-2.5-20.5-3.1-7.1-1.4-61.9-1.4-91.5.1-36.4 1.8-48.7 2.9-61.7 5.5-27.6 5.6-31.5 8.1-37.7 23.7-7 17.7-7.7 30.2-2.7 49 3.9 14.8 5.7 17.4 13.6 20.4 13 4.7 33.9 9.2 53 11.4 9.1 1.1 22.6 2.8 30 3.9 7.4 1.1 14.1 2.1 14.8 2.1 2.2 0 1.3 1.5-2.8 4.6-4.9 3.8-13.4 14.3-16.5 20.4-5.5 10.9-6.7 20.7-4 33.4 1.6 7.7 4.6 12.9 11.1 19.3 5.4 5.2 11.2 8.3 15.9 8.3 4.9 0 14-4.9 20.2-10.8 2.8-2.8 5.4-4.8 5.6-4.5.3.2-.1 2-.9 3.8-.7 1.8-3 9.1-5 16.1-5.4 19.3-4.5 30.6 2.6 32.1 1.7.3 3 .9 3 1.3s-1.1 3.3-2.6 6.5c-3.3 7.5-4.1 16.6-2 22.4 2.5 6.9 2.4 7.1-4.8 7.1-9.4 0-18.6 3.1-22.6 7.7-4.2 4.7-6 9.2-6 14.6s3.1 8.7 11 11.3c4.4 1.5 8.1 1.8 18.7 1.6 8.3-.2 13.4.1 13.8.8 1.9 3 17.1 7 27.1 7 6.1 0 13.5-2.6 20.3-7.1 6-4 6.1-4.1 6.1-8.7-.1-2.6-.7-6.3-1.4-8.2-7.4-19.1-9.8-27.5-9.2-31.8.7-5.5 1.1-6 3.3-3.9 2.5 2.2 13.1 6.7 15.9 6.7 7.8 0 25.4-14.4 25.4-20.7 0-4-3.9-8.3-7.6-8.3-.8 0-2.3-.9-3.4-2s-3-2-4.2-2c-3.9-.1-5.8-2.3-5.8-6.9 0-2.2.3-4.2.8-4.2.4-.1 1.7-.3 2.9-.4 3.9-.4 5-1.3 5.7-4.7 1.7-8.5 3.6-26.2 4.1-39.1.3-7.8.8-15.3 1-16.7.6-3.9-.8-5.2-6-5.7-4.2-.5-4.6-.8-4-2.7 1.3-4 1.6-7.1.7-8.4-.5-.7-4.5-1.8-8.9-2.4-9.2-1.3-11.3-.6-11.3 4.1 0 3.5-1.4 5.5-3.3 4.8-.9-.3-4-3.6-7-7.2-5.2-6.3-5.5-6.8-6-13.8-.3-4-.3-7.4-.2-7.5.2-.2 5.2.3 11.2 1.1 5.9.8 17.1 1.6 24.9 1.6l14.1.2 7.3 3.7c4.1 2 7.6 4.3 7.8 5.1.3.8 0 1.1-.7.7-.6-.4-2.9 0-5 1-3.5 1.5-3.7 1.9-3.2 4.8.5 2.5 1.2 3.1 3.1 3.1 2.2 0 2.5-.4 2.4-3.3-.1-2.2.3-3.2 1.2-3.2.8 0 2.6-1.2 4-2.6 2.5-2.4 2.5-2.6.9-4.4-.9-1-3-2.2-4.6-2.5-6.7-1.5-1.9-2.1 13-1.7 16.6.5 20.9-.2 30.2-4.9 4.8-2.4 12.3-12.4 13.8-18.4.7-2.6 2.3-6.2 3.5-7.9 3.1-4.1 5.2-10.4 6.5-20 3.3-23.5-1-40.4-12.3-48.3l-5.4-3.8.1-6.4.2-6.3-4.9-.4c-5.7-.6-7.6.7-7.6 4.8 0 2.9-.2 3-3.1 2.4-1.7-.3-3.8-.6-4.6-.6-1.1 0-1.3-.6-.8-2.3 3.1-9.9 3.3-11.2 1.7-13-.8-.9-2.3-1.7-3.2-1.7-1 0-3.4-.7-5.3-1.5-5.1-2.1-11.3-1.9-13.6.4zm13.7 2.2c3.1 1.2 3.6 3.2 2.2 8.5-1.2 4.1-1.5 4.5-3.9 4-1.4-.3-4.8-.8-7.5-1.2l-4.8-.7.6-4.6c1-7.6 4.7-9.3 13.4-6zM182 8.5c47.5 4.4 62.3 7.4 98.8 20 16.5 5.6 20.2 7.5 23.4 11.7 10.4 13.7 10.1 49.5-.6 65.2-1.4 2.1-2.6 4.6-2.6 5.5 0 3.4-5.9 11.2-9.6 12.7-10.4 4.4-59.3 5.2-106.9 1.9-34.8-2.5-40.6-3.2-42.2-5.5-2-2.9-7.4-3.5-13.1-1.5-4.6 1.7-5.4 1.7-26.7-1-20.6-2.5-26.1-3.5-49-8.6-4.9-1.1-11.2-2.5-14-3.1-7.3-1.5-18-5.6-21-8-4.4-3.5-5.8-7.6-7.1-21.3-1.7-17.6-.9-28 2.8-37.5 6.1-15.4 7.1-16.3 21.3-19.9 23.6-5.9 47.4-8.3 109-11 10.5-.4 19.7-.9 20.5-.9.8-.1 8.5.5 17 1.3zm115.6 10.9c1 1.1 1.2 2.1.4 4-1.3 3.5-4.7 3.5-6 0-1.7-4.4 2.3-7.2 5.6-4zM138.5 120.1c2.1 3.2-5.8 12.8-13.1 16.1-5.4 2.3-6.4 3.8-2.6 3.8 3.1 0 7.5 2.9 9.3 6.1.6 1.1.7 3.3.4 4.9l-.6 2.9-3.6-2.5c-4.1-2.7-8.3-3.2-8.3-.9 0 .8.9 1.5 1.9 1.5 2.6 0 8.1 5.6 8.2 8.3.3 5.2-.4 7.3-2.7 9.4-4.6 4.2-6.3 2.9-3.9-3.1.7-1.6.6-1.7-1.4-.7-2.4 1.3-4.1.7-4.1-1.5 0-2.7-2-1.4-3.5 2.4-1.8 4.4-5.9 7.2-10.4 7.2-4 0-5.5-3.4-4.7-10.8 1.9-16.3 12.1-31.7 27-40.6 5.9-3.6 10.9-4.6 12.1-2.5zm20.5 7.4c6.9.8 12.6 1.5 12.6 1.5.1 0 .7 2 1.3 4.4 1.9 7.9 1.5 10.4-3 15.7-3.9 4.7-4.3 4.9-9.4 4.9-3 0-5.7.5-6.2 1.2-.6.7-1.9 5.6-2.9 10.8l-1.9 9.5-9.5 9.8c-8.5 8.6-9.9 9.7-13 9.7-4.4 0-10.2-4.5-13-10.1-2.4-4.6-2.5-6.7-.4-9 1.2-1.4 2.1-1.5 4.8-.7 7.1 2.2 14-2.9 15.2-11.1.3-2.5 1.2-6 2-7.8 2.5-5.6 1.8-9.2-2.4-13.1l-3.8-3.5 6.5-6.7c3.6-3.7 7.5-6.7 8.6-6.8 1.1-.1 7.6.5 14.5 1.3zm25.7 8.1c.4 1.1-.2 2.3-1.7 3.4s-1.9 1.9-1.1 2.4c.6.4 1.6.4 2.1.1.6-.3 1 .5 1 1.8 0 2.7-1.6 3.7-6.1 3.7-2.7 0-2.9-.2-2.9-4.2 0-2.9.7-4.9 2.2-6.5 2.5-2.7 5.6-3 6.5-.7zm7.2 17.8c7.1 8.2 7.3 9 5.6 20.3-.8 5.4-1.6 11.8-1.7 14.3-.3 5.3 0 5.2-15.1 2.5-6-1-13-1.6-18.3-1.4l-8.6.4.6-3c1.3-6.3 14.2-31.3 18.6-36 1.5-1.6 3.1-2 8.3-1.9 6.5.1 6.5.1 10.6 4.8zm24.6 1.6c0 3.3-.2 3.5-3.5 3.5-3.2 0-3.5-.3-3.8-3.2-.3-3.3 1-4.3 5.3-4 1.6.2 2 .9 2 3.7zm-52.5 1.5c0 .8-8.6 9.5-9.4 9.5-1 0 .3-5.9 1.8-8.2 1-1.6 7.6-2.7 7.6-1.3zm59.5 8.2c6.4 1.8 7.5 2.6 7.5 5.8 0 3.9-1.4 4.9-5.4 3.5-2-.6-6.6-1.5-10.3-1.8-4.4-.5-6.8-1.2-7.3-2.2-.4-.8-1.2-2.5-1.8-3.7-.7-1.3-1.2-2.7-1.2-3.2 0-1.3 11.5-.3 18.5 1.6zm-65 5.6c-2.2 5.2-4.5 7.1-5.9 4.9-.5-.9 7.3-11.6 8-10.9.2.2-.7 2.9-2.1 6zm45.4 5.4c.8 4 .7 4.1-2.1 4.5l-3 .5.7-4.6c.3-2.5.9-5.7 1.2-7l.6-2.5.9 2.5c.5 1.3 1.3 4.3 1.7 6.6zm11.9-1.9c.8.5 1 1.6.6 2.7-.5 1.3-.4 1.6.4 1.1.7-.4 1.2-.1 1.2.9 0 1.2-.4 1.4-1.9.5-1.6-.8-2-.6-2.3 1.1-.2 1.6-.7 1-2-2.5-1.7-4.6-1.7-4.6.5-4.6 1.2 0 2.8.4 3.5.8zm-110.2 4.9c1.4.3 2.4 1.5 2.7 3.3.4 1.5 2.6 5 5.1 7.6 4.9 5.3 5.5 6.8 3 7.8-3.9 1.5-9-1-11.5-5.6-.9-1.7-.8-1.9 1-1.3 1.1.3 2.9.2 3.8-.4 1.5-.9 1.3-1-1.4-1.1-4.3 0-8-3.5-8.8-8.4-.6-3.7-.5-3.8 1.7-3.2 1.3.4 3.3 1 4.4 1.3zm47.4 1c0 1.6-1.1 3.9-2.7 5.5-2.5 2.6-2.8 2.7-4.5 1.2-1.7-1.6-1.6-1.8 1.3-5.5 3.6-4.6 5.9-5.1 5.9-1.2zm64.1 1.7c.5-.3.9-.2.8.3-.1.4-.1 1.7.1 2.8l.1 2 .9-2c1-2.3 1.3-.5.4 1.9-.4 1.1-1 1.3-1.8.7-.8-.7-1.2-.4-1.2.9 0 1 .3 1.7.6 1.5.3-.2.7 1.2.7 3.1.1 2-.1 3.4-.3 3.2-1.1-1.1-3.2-12-2.7-13.9.4-1.3.8-1.8 1.1-1.1.2.7.8 1 1.3.6zm-13 1.6c.6 0 .7 1.7.4 4.2-.8 5.1-.4 4.5-3.8 5.3-2.6.7-2.7.6-2.7-3.7 0-4.6 1.5-7.2 3.8-6.3.8.3 1.8.5 2.3.5zm-59 5.1c.9 1.8.7 2.5-1.6 4.9-2.3 2.4-3 2.7-4.6 1.7-2.5-1.5-2.4-1.9 1-5.6 3.4-3.7 3.7-3.7 5.2-1zM161 191c0 .5-1.3 1-3 1-4.1 0-3.8 2 .3 2.1 3 .1 2.9.1-1.3 1.3-2.5.6-4.7 1.1-4.9.9-.9-.6 2.2-5.2 3.8-5.6 3-.8 5.1-.7 5.1.3zm-24.2 5.5c1.1 2.3.9 2.7-2.7 5-2.1 1.4-5.6 2.8-7.7 3.1-3.7.5-3.8.5-1.4-.8 1.5-.8 2.5-2.3 2.5-3.6 0-1.5 1.2-2.8 3.5-4.1 4.6-2.5 4.5-2.5 5.8.4zm29.9-1.9c-.3.3-1.2.4-1.9.1-.8-.3-.5-.6.6-.6 1.1-.1 1.7.2 1.3.5zm35.7 0c1.2.4 1.6 2 1.6 5.5 0 4.4-.3 5-3 6.4-1.6.8-3.1 1.5-3.3 1.5-.8 0 .6-11.6 1.5-12.8 1.2-1.4 1.1-1.4 3.2-.6zm7.6 2c0 .8-.5 1.2-1 .9-.6-.4-.8-1.1-.5-1.6.9-1.4 1.5-1.1 1.5.7zm-86.3.2c2.4 1.5 1.8 4.5-1.2 6.2-2.6 1.5-3.3 1.6-5.7.3-3-1.5-3.7-3.3-1.3-3.3.8 0 1.9-.9 2.5-2 1.1-2 3.6-2.6 5.7-1.2zm61.3 3.5l9.5 2.3-.1 4.9c-.1 7-1.4 29.4-2 33-.3 2.6-1 3.3-5 4.4-5.7 1.7-20.1.8-24.6-1.5-2.3-1.2-4.6-1.5-8.3-1-4.8.5-5.4.4-8-2.4-2.7-2.8-2.8-3.1-2.2-11.2.7-9.7 5.9-28.7 8.4-30.6 2.6-2 20.3-.8 32.3 2.1zm19 13.9c0 5-.2 5.4-3.5 7L197 223v-5.8c0-6.3 1.1-8.2 4.7-8.2 2.1 0 2.3.4 2.3 5.2zm10.9 5c.7 2 1.2 6.9 1.2 10.9 0 6.4-.2 7.5-2.5 9.8-1.4 1.4-2.9 2.1-3.3 1.7-.4-.4-1-7.8-1.2-16.4l-.3-15.6 2.4 2.9c1.4 1.7 3 4.6 3.7 6.7zm11.4-3c.2.7.2 2.8 0 4.5-.4 2.7-1 3.3-2.9 3.3-1.8 0-2.4-.5-2.4-2.3 0-1.2-.3-3.2-.6-4.5-.6-1.9-.3-2.2 2.4-2.2 1.6 0 3.2.6 3.5 1.2zm-23.9 6.4c2 .8 2.4 13.1.4 13.1-.7 0-2.3.3-3.5.7-2.2.7-2.3.5-2.3-5 0-3.9.5-6.3 1.7-7.6 1.8-2.1 1.6-2 3.7-1.2zm1 18.5c1.7 8.6-.4 12.1-4.9 7.9-1.9-1.8-2.3-2.9-1.9-5.4.9-5.1 1.2-5.6 3.7-5.6 1.9 0 2.6.7 3.1 3.1zm17.4-.4c-.3.5-1 2.3-1.7 4.1-1.4 3.4-3.4 3.8-3.9.8-.4-2 2.5-5.6 4.5-5.6.8 0 1.3.3 1.1.7zm7.1 1.6c.8 1 .6 2.4-.9 5.5-2.2 4.6-2.7 4.9-5.5 2.8-1.9-1.3-1.9-1.5-.1-5.5 2-4.2 4.4-5.3 6.5-2.8zM158 246c1.4.9.8 2.4-1.1 2.6-2.2.3-2.3.5-1.1 1.2.9.6 1.1 3 .6 9.5l-.7 8.7h-2.8c-2 0-2.9.5-2.9 1.6 0 1.3.7 1.5 3.4 1.1 3.1-.5 3.5-.2 4.6 2.4 1.5 3.5 1.2 4-2.9 4.1-2 .1-3.1.6-3.1 1.6 0 1.1 1 1.4 4.9 1 4.5-.4 5-.3 6 2 .7 1.3 1 2.6.9 2.7-1.5 1.4-11.2 0-12.6-1.9-3.4-4.2-5.1-20.6-2.6-24.4 1.2-1.8 2.1-2.2 4-1.8 1.4.4 2.4.2 2.4-.4 0-.5-1.1-1-2.5-1-2.9 0-2.9 0-1-4.7 2.1-5 3.7-6.1 6.5-4.3zm63.2 8.1c3.5 3.3 3.9 4.1 3.6 7.9-.2 3.6-.7 4.6-3.3 6.1-4 2.5-6.1 2.4-12.1-.6s-10-7-11-10.9c-.7-2.8-.6-2.9 2.1-2.2 3.6.9 7.1-1.4 8-5.3l.6-2.9 4.2 2.1c2.2 1.2 5.8 3.8 7.9 5.8zm-27.9 12.4c-1.1 4.4-1.2 6.7-.4 10.6 1.3 5.9 1.1 6.5-2.9 7.4-4.1.9-2.6 2.9 1.6 2.2 2.7-.5 3.7-.1 4.9 1.6.8 1.2 1.5 2.5 1.5 2.9 0 1.4-3.6.9-8.2-1.2-3.7-1.6-4.7-2.6-5.2-5.1-1.1-5.7-.8-6.7 2.4-7.4 1.6-.4 3.3-1.1 3.6-1.7.4-.6-.2-.8-1.6-.3-1.3.4-3.3.2-4.6-.6-1.9-1-2.4-2-2.4-5.4 0-5.2 1.8-6.9 6-6 4.2.9 3.8-1.1-.5-2.5-2.3-.8-3.5-1.8-3.5-3 0-2.4 2.6-4.3 5.1-3.7 1.3.3 1.9.1 1.6-.6-.2-.7-1.6-1.2-3-1.2-3.6.1-3.4-.9.5-3.3l3.2-2.1 1.7 6.9c1.4 6.2 1.4 7.6.2 12.5zm43.3-17c1.5 2.3 1.5 2.7-.2 5.6-1.1 1.7-3.7 4.7-6 6.5l-4.1 3.4.4-5.2c.6-7.6 3-12.8 5.9-12.8 1.4 0 3 1 4 2.5zm-61.3 1.2c7.9.6 7.7.1 4.5 12.5-1.9 7.6-2.1 9.3-1 13.2.6 2.5.9 5.9.6 7.6-.6 2.8-1 3-5 3h-4.3l-5.1-10.3c-5.2-10.8-5.8-14.1-3.9-21.2 1.5-5.3 2.8-6.8 5.3-6 1.2.4 5.1.9 8.9 1.2zM147.5 286c.3.5-.7 1.1-2.2 1.5-1.5.3-5.1 1.8-7.9 3.1-6.1 2.9-8.8 7.3-8.2 13.4.3 3 .1 3.6-.9 2.8-.7-.5-1.8-.6-2.5-.2-.7.5-3.2.9-5.5 1-4.1.1-4.3 0-4.5-3-.5-10.3 3.9-16.2 13.8-18.5 4.7-1 17.3-1.1 17.9-.1zm33.8 4.1c4.3 1.2 4.8 2.4 1.1 3.3-7 1.8-10.1 7.5-8.8 16.2.6 4.3.6 4.5-1.7 4-6.9-1.4-14.1-1.7-15.5-.5-1.3 1-1.4.5-1-4.4.5-6.1 1.6-8.9 5.3-12.8 2.3-2.5 2.9-2.6 9.4-2.3 4.3.3 6.9 0 6.9-.6 0-.5-2.2-1-5-1-2.7 0-5-.4-5-.9 0-2 8.5-2.6 14.3-1zm-23.8 1.7c-.3.3-1.1 0-1.8-.7-.9-1-.8-1.1.6-.5 1 .3 1.5.9 1.2 1.2zm-15 2c-.3.3-1.1 0-1.8-.7-.9-1-.8-1.1.6-.5 1 .3 1.5.9 1.2 1.2zm50.2 4.8c-.3.3-1.2.4-1.9.1-.8-.3-.5-.6.6-.6 1.1-.1 1.7.2 1.3.5zm5.4 1.1c1.3 1.6 1.2 1.7-.3.4-1.7-1.3-2.2-2.1-1.4-2.1.2 0 1 .8 1.7 1.7zm-47.1-.3c0 .3-.4.8-1 1.1-.5.3-1 .1-1-.4 0-.6.5-1.1 1-1.1.6 0 1 .2 1 .4zm49.4 3.5c.4.5-.3.7-1.4.4-2.3-.6-2.6-1.3-.6-1.3.8 0 1.7.4 2 .9zm-68.5 9.8c-1.3.2-4.9-.4-7.9-1.2l-5.5-1.4 5.8.5c4.1.4 5.7.2 5.7-.7 0-.7.8-.5 2.1.7l2.1 1.9-2.3.2zm9.6-1.7c.3.5.1 1-.4 1-.6 0-1.1-.5-1.1-1 0-.6.2-1 .4-1 .3 0 .8.4 1.1 1zm61.5 1c-.9 1.6-4 1.9-4 .3 0-.3.6-.3 1.4 0 .8.3 1.7-.1 2-.9.3-.8.8-1.4 1.1-1.4.3 0 .1.9-.5 2zm-29.5 4.4c1-.4 3 3.5 2.2 4.2-.6.4-15.5-1.7-17.4-2.6-4.4-1.9-2.2-2.6 5.8-1.9 4.5.4 8.7.5 9.4.3z"/><path d="M88.5 22.5c-18.2 1.6-34.7 3.8-44.4 6-9.8 2.3-11.5 4.8-13 19.5-1.9 17.7-2.1 35.7-.4 39.9 2.4 6.1 11.1 10.5 27.2 13.7 4.2.9 10.8 2.2 14.6 3 3.9.8 12.4 2.4 19 3.5 46.2 7.7 55.2 8.4 106.5 8.4 42.5 0 43.7-.1 52.9-2.4 12-3 15.7-4.6 17.5-7.4.8-1.2 3.2-7.2 5.2-13.2 3.8-10.9 3.8-11.2 3.8-26-.1-18-1.1-22.2-6-26-9.7-7.4-31-14.3-54.6-17.6-12.5-1.8-20.5-2.1-63.8-2.4-35.3-.2-53.8 0-64.5 1zM119 27c-3 .4-6.3 1.1-7.2 1.5-1 .4-1.8.3-1.8-.2 0-1-10.5-.1-11.6 1-.4.4-.1.7.6.7s1.1.2.8.5c-.9 1-3.8-.7-3.1-1.8.4-.7 0-.8-1.3-.3-2.3.9-25.1 2.1-24.3 1.2.3-.3 5-.8 10.5-1.2 5.4-.3 13.3-1 17.4-1.4 4.1-.4 11.6-.7 16.5-.7 8.2 0 8.5 0 3.5.7zm29.7-.4c-.3.3-1.2.4-1.9.1-.8-.3-.5-.6.6-.6 1.1-.1 1.7.2 1.3.5zm3 6c4.6 2.3 6.3 3.8 8.1 7.4 4.8 9.2 1.1 24.5-9.3 38-11.3 14.7-24.9 20-52 20.5-14.7.3-26.5-1-32.4-3.5-4.2-1.7-6.6-6.5-6.6-13.5 0-4.9.7-7.1 3.4-12.3 13-24.1 44.3-40.8 74.8-39.8 6.8.2 9.2.7 14 3.2zm-82.4-1.9c-.7.2-2.1.2-3 0-1-.3-.4-.5 1.2-.5 1.7 0 2.4.2 1.8.5zm144.2 13.8c19.8 5.6 34.7 16.4 40 28.9 5.1 12 2.3 24.5-7.5 32.8-9.6 8.3-34.9 8.8-52.3 1.2-9.3-4.2-18.2-10-22.5-14.9-4.9-5.6-10.2-15.9-10.2-20 0-12.1 11-25.8 24.3-30.1 5.8-1.9 17.1-1.1 28.2 2.1z"/><path d="M138.6 58.1c-4.6 3.6-3.1 9.9 2.5 9.9 5.5 0 9.2-5.3 7.3-10.4-.9-2.3-6.6-2-9.8.5zM181 71c-2.7 2.7-2.7 8.6-.1 9.5 2.1.6 7.2-1.1 8.3-2.8 1.2-1.8.9-6.2-.4-7.5-1.8-1.8-5.6-1.4-7.8.8zM130 288c-3.8.8-3.8 1.1 0 1.6 3.5.4 7.2-.5 6.5-1.6-.7-1.1-1.3-1.1-6.5 0zM120.3 292.7c-.7.2-1.3 1.1-1.3 1.9 0 1 1.3 1.4 4.3 1.4 4 0 6.7-1.3 6.7-3.2 0-.9-7.7-1-9.7-.1zM117.6 300.7c-.9 2.2 1 3.3 5.7 3.3 4.4 0 5.2-2.5 1.1-4-3.7-1.5-6.1-1.2-6.8.7zM160.8 297.6c-.5.4-.8 1.4-.8 2.3 0 1.3 1.1 1.6 5.5 1.5 4.9 0 8.7-1.5 7.4-2.9-.9-.9-11.4-1.7-12.1-.9zM157.4 306.1c-1.1 1.8.8 2.7 6.8 3.4 4.9.6 5.9.5 6.4-.9.9-2.2.9-2.2-6.3-2.9-4-.4-6.4-.3-6.9.4zM223 143.4c-2.3 1.3-2.2 1.4 2 1 2.5-.3 5.2 0 6 .5 1.2.8 1.2 1.3-.4 3-2.4 2.6-1.4 6.8 1.9 8.3 3 1.4 8.8.3 10.9-2.1 2-2.2 1-5.3-2.4-7.1-2.6-1.4-2.5-2.8.3-3.3 1.2-.3.2-.5-2.3-.5-2.5-.1-6.5-.4-9-.7-3-.3-5.3 0-7 .9zm15.5 6.1c2.7 2.6 3.1 4 1.5 5-1.9 1.2-6-2.4-6-5 0-3.2 1.4-3.2 4.5 0z"/></svg>